<svg width="91" height="53" viewBox="0 0 91 53" fill="none" xmlns="http://www.w3.org/2000/svg">
<g clip-path="url(#clip0_33_2545)">
<g clip-path="url(#clip1_33_2545)">
<path d="M2.08203 0.486248C1.30273 0.746014 0.597652 1.53273 0.43437 2.32687C0.11523 3.85578 1.64414 5.38469 3.17304 5.06555C4.32343 4.82805 5.21406 3.65539 5.10273 2.54953C5.02109 1.77023 4.43476 0.96867 3.69257 0.604998C3.23984 0.389764 2.54218 0.337811 2.08203 0.486248Z" fill="#FFC500" fill-opacity="0.21"/>
<path d="M11.582 0.486294C10.4613 0.857388 9.70429 2.08942 9.93437 3.17301C10.1199 4.05622 10.9437 4.88004 11.8195 5.06559C13.2594 5.36989 14.7512 4.01168 14.6027 2.54958C14.5211 1.77028 13.9348 0.968716 13.1926 0.605044C12.7398 0.38981 12.0422 0.337856 11.582 0.486294Z" fill="#FFC500" fill-opacity="0.21"/>
<path d="M21.082 0.486248C20.3027 0.746014 19.5977 1.53273 19.4344 2.32687C19.1152 3.85578 20.6441 5.38469 22.1731 5.06555C23.3234 4.82805 24.2141 3.65539 24.1027 2.54953C24.0211 1.77023 23.4348 0.96867 22.6926 0.604998C22.2398 0.389764 21.5422 0.337811 21.082 0.486248Z" fill="#FFC500" fill-opacity="0.21"/>
<path d="M30.582 0.486248C29.8027 0.746014 29.0976 1.53273 28.9344 2.32687C28.6152 3.85578 30.1441 5.38469 31.673 5.06555C32.8234 4.82805 33.7141 3.65539 33.6027 2.54953C33.5211 1.77023 32.9348 0.96867 32.1926 0.604998C31.7398 0.389764 31.0422 0.337811 30.582 0.486248Z" fill="#FFC500" fill-opacity="0.21"/>
<path d="M40.082 0.486248C39.3027 0.746014 38.5977 1.53273 38.4344 2.32687C38.1152 3.85578 39.6441 5.38469 41.1731 5.06555C42.3234 4.82805 43.2141 3.65539 43.1027 2.54953C43.0211 1.77023 42.4348 0.96867 41.6926 0.604998C41.2398 0.389764 40.5422 0.337811 40.082 0.486248Z" fill="#FFC500" fill-opacity="0.21"/>
<path d="M49.582 0.486248C48.8027 0.746014 48.0977 1.53273 47.9344 2.32687C47.6152 3.85578 49.1441 5.38469 50.6731 5.06555C51.8234 4.82805 52.7141 3.65539 52.6027 2.54953C52.5211 1.77023 51.9348 0.96867 51.1926 0.604998C50.7398 0.389764 50.0422 0.337811 49.582 0.486248Z" fill="#FFC500" fill-opacity="0.21"/>
<path d="M59.082 0.486248C58.3027 0.746014 57.5977 1.53273 57.4344 2.32687C57.1152 3.85578 58.6441 5.38469 60.1731 5.06555C61.3234 4.82805 62.2141 3.65539 62.1027 2.54953C62.0211 1.77023 61.4348 0.96867 60.6926 0.604998C60.2398 0.389764 59.5422 0.337811 59.082 0.486248Z" fill="#FFC500" fill-opacity="0.21"/>
<path d="M68.582 0.486248C67.8027 0.746014 67.0976 1.53273 66.9344 2.32687C66.6152 3.85578 68.1441 5.38469 69.673 5.06555C70.8234 4.82805 71.7141 3.65539 71.6027 2.54953C71.5211 1.77023 70.9348 0.96867 70.1926 0.604998C69.7398 0.389764 69.0422 0.337811 68.582 0.486248Z" fill="#FFC500" fill-opacity="0.21"/>
<path d="M78.082 0.486301C77.3027 0.746066 76.5976 1.53278 76.4344 2.32693C76.2488 3.19528 76.6719 4.13786 77.4883 4.6945C78.2824 5.24372 79.1879 5.25114 79.9894 4.71677C81.3031 3.84099 81.4812 2.20818 80.3828 1.11716C79.7519 0.478879 78.8465 0.233957 78.082 0.486301Z" fill="#FFC500" fill-opacity="0.21"/>
<path d="M87.582 0.486301C86.8027 0.746066 86.0977 1.53278 85.9344 2.32693C85.7488 3.19528 86.1719 4.13786 86.9883 4.6945C87.7824 5.24372 88.6879 5.25114 89.4895 4.71677C90.8031 3.84099 90.9813 2.20818 89.8828 1.11716C89.252 0.478879 88.3465 0.233957 87.582 0.486301Z" fill="#FFC500" fill-opacity="0.21"/>
<path d="M2.08203 12.2099C1.30273 12.4696 0.597652 13.2564 0.43437 14.0505C0.11523 15.5794 1.64414 17.1083 3.17304 16.7892C4.32343 16.5517 5.21406 15.379 5.10273 14.2732C5.02109 13.4939 4.43476 12.6923 3.69257 12.3286C3.23984 12.1134 2.54218 12.0614 2.08203 12.2099Z" fill="#FFC500" fill-opacity="0.21"/>
<path d="M11.582 12.2099C10.4613 12.581 9.70429 13.8131 9.93437 14.8966C10.1199 15.7798 10.9437 16.6037 11.8195 16.7892C13.2594 17.0935 14.7512 15.7353 14.6027 14.2732C14.5211 13.4939 13.9348 12.6923 13.1926 12.3287C12.7398 12.1134 12.0422 12.0615 11.582 12.2099Z" fill="#FFC500" fill-opacity="0.21"/>
<path d="M21.082 12.2099C20.3027 12.4696 19.5977 13.2564 19.4344 14.0505C19.1152 15.5794 20.6441 17.1083 22.1731 16.7892C23.3234 16.5517 24.2141 15.379 24.1027 14.2732C24.0211 13.4939 23.4348 12.6923 22.6926 12.3286C22.2398 12.1134 21.5422 12.0614 21.082 12.2099Z" fill="#FFC500" fill-opacity="0.21"/>
<path d="M30.582 12.2099C29.8027 12.4696 29.0976 13.2564 28.9344 14.0505C28.6152 15.5794 30.1441 17.1083 31.673 16.7892C32.8234 16.5517 33.7141 15.379 33.6027 14.2732C33.5211 13.4939 32.9348 12.6923 32.1926 12.3286C31.7398 12.1134 31.0422 12.0614 30.582 12.2099Z" fill="#FFC500" fill-opacity="0.21"/>
<path d="M40.082 12.2099C39.3027 12.4696 38.5977 13.2564 38.4344 14.0505C38.1152 15.5794 39.6441 17.1083 41.1731 16.7892C42.3234 16.5517 43.2141 15.379 43.1027 14.2732C43.0211 13.4939 42.4348 12.6923 41.6926 12.3286C41.2398 12.1134 40.5422 12.0614 40.082 12.2099Z" fill="#FFC500" fill-opacity="0.21"/>
<path d="M49.582 12.2099C48.8027 12.4696 48.0977 13.2564 47.9344 14.0505C47.6152 15.5794 49.1441 17.1083 50.6731 16.7892C51.8234 16.5517 52.7141 15.379 52.6027 14.2732C52.5211 13.4939 51.9348 12.6923 51.1926 12.3286C50.7398 12.1134 50.0422 12.0614 49.582 12.2099Z" fill="#FFC500" fill-opacity="0.21"/>
<path d="M59.082 12.2099C58.3027 12.4696 57.5977 13.2564 57.4344 14.0505C57.1152 15.5794 58.6441 17.1083 60.1731 16.7892C61.3234 16.5517 62.2141 15.379 62.1027 14.2732C62.0211 13.4939 61.4348 12.6923 60.6926 12.3286C60.2398 12.1134 59.5422 12.0614 59.082 12.2099Z" fill="#FFC500" fill-opacity="0.21"/>
<path d="M68.582 12.2099C67.8027 12.4696 67.0976 13.2564 66.9344 14.0505C66.6152 15.5794 68.1441 17.1083 69.673 16.7892C70.8234 16.5517 71.7141 15.379 71.6027 14.2732C71.5211 13.4939 70.9348 12.6923 70.1926 12.3286C69.7398 12.1134 69.0422 12.0614 68.582 12.2099Z" fill="#FFC500" fill-opacity="0.21"/>
<path d="M78.082 12.2099C77.3027 12.4697 76.5976 13.2564 76.4344 14.0506C76.2488 14.9189 76.6719 15.8615 77.4883 16.4181C78.2824 16.9674 79.1879 16.9748 79.9894 16.4404C81.3031 15.5646 81.4812 13.9318 80.3828 12.8408C79.7519 12.2025 78.8465 11.9576 78.082 12.2099Z" fill="#FFC500" fill-opacity="0.21"/>
<path d="M87.582 12.2099C86.8027 12.4697 86.0977 13.2564 85.9344 14.0506C85.7488 14.9189 86.1719 15.8615 86.9883 16.4181C87.7824 16.9674 88.6879 16.9748 89.4895 16.4404C90.8031 15.5646 90.9813 13.9318 89.8828 12.8408C89.252 12.2025 88.3465 11.9576 87.582 12.2099Z" fill="#FFC500" fill-opacity="0.21"/>
<path d="M2.08203 23.9201C1.30273 24.1799 0.597652 24.9666 0.43437 25.7607C0.11523 27.2896 1.64414 28.8185 3.17304 28.4994C4.32343 28.2619 5.21406 27.0892 5.10273 25.9834C5.02109 25.2041 4.43476 24.4025 3.69257 24.0388C3.23984 23.8236 2.54218 23.7716 2.08203 23.9201Z" fill="#FFC500" fill-opacity="0.21"/>
<path d="M11.582 23.9201C10.8027 24.1799 10.0977 24.9666 9.93437 25.7607C9.61523 27.2896 11.1441 28.8185 12.673 28.4994C13.8234 28.2619 14.7141 27.0892 14.6027 25.9834C14.5211 25.2041 13.9348 24.4025 13.1926 24.0388C12.7398 23.8236 12.0422 23.7716 11.582 23.9201Z" fill="#FFC500" fill-opacity="0.21"/>
<path d="M21.082 23.9201C20.3027 24.1799 19.5977 24.9666 19.4344 25.7607C19.1152 27.2896 20.6441 28.8185 22.1731 28.4994C23.3234 28.2619 24.2141 27.0892 24.1027 25.9834C24.0211 25.2041 23.4348 24.4025 22.6926 24.0388C22.2398 23.8236 21.5422 23.7716 21.082 23.9201Z" fill="#FFC500" fill-opacity="0.21"/>
<path d="M30.582 23.9201C29.8027 24.1799 29.0976 24.9666 28.9344 25.7607C28.6152 27.2896 30.1441 28.8185 31.673 28.4994C32.8234 28.2619 33.7141 27.0892 33.6027 25.9834C33.5211 25.2041 32.9348 24.4025 32.1926 24.0388C31.7398 23.8236 31.0422 23.7716 30.582 23.9201Z" fill="#FFC500" fill-opacity="0.21"/>
<path d="M40.082 23.9201C39.3027 24.1799 38.5977 24.9666 38.4344 25.7607C38.1152 27.2896 39.6441 28.8185 41.1731 28.4994C42.3234 28.2619 43.2141 27.0892 43.1027 25.9834C43.0211 25.2041 42.4348 24.4025 41.6926 24.0388C41.2398 23.8236 40.5422 23.7716 40.082 23.9201Z" fill="#FFC500" fill-opacity="0.21"/>
<path d="M49.582 23.9201C48.8027 24.1799 48.0977 24.9666 47.9344 25.7607C47.6152 27.2896 49.1441 28.8185 50.6731 28.4994C51.8234 28.2619 52.7141 27.0892 52.6027 25.9834C52.5211 25.2041 51.9348 24.4025 51.1926 24.0388C50.7398 23.8236 50.0422 23.7716 49.582 23.9201Z" fill="#FFC500" fill-opacity="0.21"/>
<path d="M59.082 23.9201C58.3027 24.1799 57.5977 24.9666 57.4344 25.7607C57.1152 27.2896 58.6441 28.8185 60.1731 28.4994C61.3234 28.2619 62.2141 27.0892 62.1027 25.9834C62.0211 25.2041 61.4348 24.4025 60.6926 24.0388C60.2398 23.8236 59.5422 23.7716 59.082 23.9201Z" fill="#FFC500" fill-opacity="0.21"/>
<path d="M68.582 23.9201C67.8027 24.1799 67.0976 24.9666 66.9344 25.7607C66.6152 27.2896 68.1441 28.8185 69.673 28.4994C70.8234 28.2619 71.7141 27.0892 71.6027 25.9834C71.5211 25.2041 70.9348 24.4025 70.1926 24.0388C69.7398 23.8236 69.0422 23.7716 68.582 23.9201Z" fill="#FFC500" fill-opacity="0.21"/>
<path d="M78.082 23.9201C77.3027 24.1799 76.5976 24.9666 76.4344 25.7607C76.1152 27.2896 77.6441 28.8185 79.173 28.4994C80.3234 28.2619 81.2141 27.0892 81.1027 25.9834C81.0211 25.2041 80.4348 24.4025 79.6926 24.0388C79.2398 23.8236 78.5422 23.7716 78.082 23.9201Z" fill="#FFC500" fill-opacity="0.21"/>
<path d="M87.582 23.9201C86.8027 24.1799 86.0976 24.9666 85.9344 25.7607C85.6152 27.2896 87.1441 28.8185 88.673 28.4994C89.8234 28.2619 90.7141 27.0892 90.6027 25.9834C90.5211 25.2041 89.9348 24.4025 89.1926 24.0388C88.7398 23.8236 88.0422 23.7716 87.582 23.9201Z" fill="#FFC500" fill-opacity="0.21"/>
<path d="M2.08203 35.6264C1.30273 35.8862 0.597652 36.6729 0.43437 37.467C0.11523 38.9959 1.64414 40.5248 3.17304 40.2057C4.32343 39.9682 5.21406 38.7955 5.10273 37.6897C5.02109 36.9104 4.43476 36.1088 3.69257 35.7451C3.23984 35.5299 2.54218 35.4779 2.08203 35.6264Z" fill="#FFC500" fill-opacity="0.21"/>
<path d="M11.582 35.6264C10.8027 35.8862 10.0977 36.6729 9.93437 37.467C9.61523 38.9959 11.1441 40.5248 12.673 40.2057C13.8234 39.9682 14.7141 38.7955 14.6027 37.6897C14.5211 36.9104 13.9348 36.1088 13.1926 35.7451C12.7398 35.5299 12.0422 35.4779 11.582 35.6264Z" fill="#FFC500" fill-opacity="0.21"/>
<path d="M21.082 35.6264C20.3027 35.8862 19.5977 36.6729 19.4344 37.467C19.1152 38.9959 20.6441 40.5248 22.1731 40.2057C23.3234 39.9682 24.2141 38.7955 24.1027 37.6897C24.0211 36.9104 23.4348 36.1088 22.6926 35.7451C22.2398 35.5299 21.5422 35.4779 21.082 35.6264Z" fill="#FFC500" fill-opacity="0.21"/>
<path d="M30.582 35.6264C29.8027 35.8862 29.0976 36.6729 28.9344 37.467C28.6152 38.9959 30.1441 40.5248 31.673 40.2057C32.8234 39.9682 33.7141 38.7955 33.6027 37.6897C33.5211 36.9104 32.9348 36.1088 32.1926 35.7451C31.7398 35.5299 31.0422 35.4779 30.582 35.6264Z" fill="#FFC500" fill-opacity="0.21"/>
<path d="M40.082 35.6264C39.3027 35.8862 38.5977 36.6729 38.4344 37.467C38.1152 38.9959 39.6441 40.5248 41.1731 40.2057C42.3234 39.9682 43.2141 38.7955 43.1027 37.6897C43.0211 36.9104 42.4348 36.1088 41.6926 35.7451C41.2398 35.5299 40.5422 35.4779 40.082 35.6264Z" fill="#FFC500" fill-opacity="0.21"/>
<path d="M49.582 35.6264C48.8027 35.8862 48.0977 36.6729 47.9344 37.467C47.6152 38.9959 49.1441 40.5248 50.6731 40.2057C51.8234 39.9682 52.7141 38.7955 52.6027 37.6897C52.5211 36.9104 51.9348 36.1088 51.1926 35.7451C50.7398 35.5299 50.0422 35.4779 49.582 35.6264Z" fill="#FFC500" fill-opacity="0.21"/>
<path d="M59.082 35.6264C58.3027 35.8862 57.5977 36.6729 57.4344 37.467C57.1152 38.9959 58.6441 40.5248 60.1731 40.2057C61.3234 39.9682 62.2141 38.7955 62.1027 37.6897C62.0211 36.9104 61.4348 36.1088 60.6926 35.7451C60.2398 35.5299 59.5422 35.4779 59.082 35.6264Z" fill="#FFC500" fill-opacity="0.21"/>
<path d="M68.582 35.6264C67.8027 35.8862 67.0976 36.6729 66.9344 37.467C66.6152 38.9959 68.1441 40.5248 69.673 40.2057C70.8234 39.9682 71.7141 38.7955 71.6027 37.6897C71.5211 36.9104 70.9348 36.1088 70.1926 35.7451C69.7398 35.5299 69.0422 35.4779 68.582 35.6264Z" fill="#FFC500" fill-opacity="0.21"/>
<path d="M78.082 35.6264C77.3027 35.8862 76.5976 36.6729 76.4344 37.467C76.1152 38.9959 77.6441 40.5248 79.173 40.2057C80.3234 39.9682 81.2141 38.7955 81.1027 37.6897C81.0211 36.9104 80.4348 36.1088 79.6926 35.7451C79.2398 35.5299 78.5422 35.4779 78.082 35.6264Z" fill="#FFC500" fill-opacity="0.21"/>
<path d="M87.582 35.6264C86.8027 35.8862 86.0976 36.6729 85.9344 37.467C85.6152 38.9959 87.1441 40.5248 88.673 40.2057C89.8234 39.9682 90.7141 38.7955 90.6027 37.6897C90.5211 36.9104 89.9348 36.1088 89.1926 35.7451C88.7398 35.5299 88.0422 35.4779 87.582 35.6264Z" fill="#FFC500" fill-opacity="0.21"/>
<path d="M2.08203 47.3327C1.30273 47.5924 0.597652 48.3792 0.43437 49.1733C0.11523 50.7022 1.64414 52.2311 3.17304 51.912C4.32343 51.6745 5.21406 50.5018 5.10273 49.396C5.02109 48.6167 4.43476 47.8151 3.69257 47.4514C3.23984 47.2362 2.54218 47.1842 2.08203 47.3327Z" fill="#FFC500" fill-opacity="0.21"/>
<path d="M11.582 47.3327C10.8027 47.5924 10.0977 48.3792 9.93437 49.1733C9.61523 50.7022 11.1441 52.2311 12.673 51.912C13.8234 51.6745 14.7141 50.5018 14.6027 49.396C14.5211 48.6167 13.9348 47.8151 13.1926 47.4514C12.7398 47.2362 12.0422 47.1842 11.582 47.3327Z" fill="#FFC500" fill-opacity="0.21"/>
<path d="M21.082 47.3327C20.3027 47.5924 19.5977 48.3792 19.4344 49.1733C19.1152 50.7022 20.6441 52.2311 22.1731 51.912C23.3234 51.6745 24.2141 50.5018 24.1027 49.396C24.0211 48.6167 23.4348 47.8151 22.6926 47.4514C22.2398 47.2362 21.5422 47.1842 21.082 47.3327Z" fill="#FFC500" fill-opacity="0.21"/>
<path d="M30.582 47.3327C29.8027 47.5924 29.0976 48.3792 28.9344 49.1733C28.6152 50.7022 30.1441 52.2311 31.673 51.912C32.8234 51.6745 33.7141 50.5018 33.6027 49.396C33.5211 48.6167 32.9348 47.8151 32.1926 47.4514C31.7398 47.2362 31.0422 47.1842 30.582 47.3327Z" fill="#FFC500" fill-opacity="0.21"/>
<path d="M40.082 47.3327C39.3027 47.5924 38.5977 48.3792 38.4344 49.1733C38.1152 50.7022 39.6441 52.2311 41.1731 51.912C42.3234 51.6745 43.2141 50.5018 43.1027 49.396C43.0211 48.6167 42.4348 47.8151 41.6926 47.4514C41.2398 47.2362 40.5422 47.1842 40.082 47.3327Z" fill="#FFC500" fill-opacity="0.21"/>
<path d="M49.582 47.3327C48.8027 47.5924 48.0977 48.3792 47.9344 49.1733C47.6152 50.7022 49.1441 52.2311 50.6731 51.912C51.8234 51.6745 52.7141 50.5018 52.6027 49.396C52.5211 48.6167 51.9348 47.8151 51.1926 47.4514C50.7398 47.2362 50.0422 47.1842 49.582 47.3327Z" fill="#FFC500" fill-opacity="0.21"/>
<path d="M59.082 47.3327C58.3027 47.5924 57.5977 48.3792 57.4344 49.1733C57.1152 50.7022 58.6441 52.2311 60.1731 51.912C61.3234 51.6745 62.2141 50.5018 62.1027 49.396C62.0211 48.6167 61.4348 47.8151 60.6926 47.4514C60.2398 47.2362 59.5422 47.1842 59.082 47.3327Z" fill="#FFC500" fill-opacity="0.21"/>
<path d="M68.582 47.3327C67.8027 47.5924 67.0976 48.3792 66.9344 49.1733C66.6152 50.7022 68.1441 52.2311 69.673 51.912C70.8234 51.6745 71.7141 50.5018 71.6027 49.396C71.5211 48.6167 70.9348 47.8151 70.1926 47.4514C69.7398 47.2362 69.0422 47.1842 68.582 47.3327Z" fill="#FFC500" fill-opacity="0.21"/>
<path d="M78.082 47.3327C77.3027 47.5924 76.5976 48.3792 76.4344 49.1733C76.1152 50.7022 77.6441 52.2311 79.173 51.912C80.3234 51.6745 81.2141 50.5018 81.1027 49.396C81.0211 48.6167 80.4348 47.8151 79.6926 47.4514C79.2398 47.2362 78.5422 47.1842 78.082 47.3327Z" fill="#FFC500" fill-opacity="0.21"/>
<path d="M87.582 47.3327C86.8027 47.5924 86.0976 48.3792 85.9344 49.1733C85.6152 50.7022 87.1441 52.2311 88.673 51.912C89.8234 51.6745 90.7141 50.5018 90.6027 49.396C90.5211 48.6167 89.9348 47.8151 89.1926 47.4514C88.7398 47.2362 88.0422 47.1842 87.582 47.3327Z" fill="#FFC500" fill-opacity="0.21"/>
</g>
</g>
<defs>
<clipPath id="clip0_33_2545">
<rect width="91" height="53" fill="white"/>
</clipPath>
<clipPath id="clip1_33_2545">
<rect width="95" height="95" fill="white" transform="translate(-2 -2)"/>
</clipPath>
</defs>
</svg>
